{
  "accessors": [
    {
      "bufferView": 2,
      "componentType": 5126,
      "count": 3369,
      "max": [
        0.11116408556699753,
        0.11116408556699753,
        0.10399599373340607
      ],
      "min": [
        -0.11116408556699753,
        -0.11116408556699753,
        -0.1824990063905716
      ],
      "type": "VEC3"
    },
    {
      "bufferView": 2,
      "byteOffset": 40428,
      "componentType": 5126,
      "count": 3369,
      "max": [
        0.9999414682388306,
        0.9999732971191406,
        1.0
      ],
      "min": [
        -0.9998729228973389,
        -0.9998775720596313,
        -0.9996178150177002
      ],
      "type": "VEC3"
    },
    {
      "bufferView": 1,
      "componentType": 5126,
      "count": 3369,
      "max": [
        0.9788304567337036,
        0.9655249714851379
      ],
      "min": [
        0.020743679255247116,
        0.020743679255247116
      ],
      "type": "VEC2"
    },
    {
      "bufferView": 0,
      "componentType": 5125,
      "count": 13848,
      "type": "SCALAR"
    }
  ],
  "asset": {
    "extras": {
      "author": "Kigha (https://sketchfab.com/Kigha)",
      "license": "CC-BY-4.0 (http://creativecommons.org/licenses/by/4.0/)",
      "source": "https://sketchfab.com/3d-models/stylized-lotus-flower-12768caa111f446b8796e70f9cc53a23",
      "title": "Stylized Lotus Flower"
    },
    "generator": "Sketchfab-12.67.0",
    "version": "2.0"
  },
  "bufferViews": [
    {
      "buffer": 0,
      "byteLength": 55392,
      "name": "floatBufferViews",
      "target": 34963
    },
    {
      "buffer": 0,
      "byteLength": 26952,
      "byteOffset": 55392,
      "byteStride": 8,
      "name": "floatBufferViews",
      "target": 34962
    },
    {
      "buffer": 0,
      "byteLength": 80856,
      "byteOffset": 82344,
      "byteStride": 12,
      "name": "floatBufferViews",
      "target": 34962
    }
  ],
  "buffers": [
    {
      "byteLength": 163200,
      "uri": "scene.bin"
    }
  ],
  "images": [
    {
      "uri": "textures/Lotus_baseColor.png"
    }
  ],
  "materials": [
    {
      "doubleSided": true,
      "name": "Lotus",
      "pbrMetallicRoughness": {
        "baseColorTexture": {
          "index": 0
        },
        "metallicFactor": 0.0,
        "roughnessFactor": 0.7738920404453119
      }
    }
  ],
  "meshes": [
    {
      "name": "Flower_Lotus-Stylized_Lotus_0",
      "primitives": [
        {
          "attributes": {
            "NORMAL": 1,
            "POSITION": 0,
            "TEXCOORD_0": 2
          },
          "indices": 3,
          "material": 0,
          "mode": 4
        }
      ]
    }
  ],
  "nodes": [
    {
      "children": [
        1
      ],
      "matrix": [
        1.0,
        0.0,
        0.0,
        0.0,
        0.0,
        2.220446049250313e-16,
        -1.0,
        0.0,
        0.0,
        1.0,
        2.220446049250313e-16,
        0.0,
        0.0,
        0.0,
        0.0,
        1.0
      ],
      "name": "Sketchfab_model"
    },
    {
      "children": [
        2
      ],
      "matrix": [
        1.0,
        0.0,
        0.0,
        0.0,
        0.0,
        0.0,
        1.0,
        0.0,
        0.0,
        -1.0,
        0.0,
        0.0,
        0.0,
        0.0,
        0.0,
        1.0
      ],
      "name": "Flower_Lotus-Stylized.fbx"
    },
    {
      "children": [
        3
      ],
      "name": "RootNode"
    },
    {
      "children": [
        4
      ],
      "matrix": [
        100.0,
        0.0,
        0.0,
        0.0,
        -0.0,
        -1.629206793918314e-05,
        -99.99999999999868,
        0.0,
        0.0,
        99.99999999999868,
        -1.629206793918314e-05,
        0.0,
        -1.1921386544599955e-07,
        0.7547335028648376,
        3.1790366961104155e-07,
        1.0
      ],
      "name": "Flower_Lotus-Stylized"
    },
    {
      "mesh": 0,
      "name": "Flower_Lotus-Stylized_Lotus_0"
    }
  ],
  "samplers": [
    {
      "magFilter": 9729,
      "minFilter": 9987,
      "wrapS": 10497,
      "wrapT": 10497
    }
  ],
  "scene": 0,
  "scenes": [
    {
      "name": "Sketchfab_Scene",
      "nodes": [
        0
      ]
    }
  ],
  "textures": [
    {
      "sampler": 0,
      "source": 0
    }
  ]
}
